HIERARCHY
ROOT hip
{
OFFSET -0.55 94.97 0.71
CHANNELS 6 Xposition Yposition Zposition Zrotation Xrotation Yrotation
JOINT abdomen
{
OFFSET 0 7.23 0
CHANNELS 6 Xposition Yposition Zposition Zrotation Xrotation Yrotation
JOINT chest
{
OFFSET 0 16.54 0
CHANNELS 6 Xposition Yposition Zposition Zrotation Xrotation Yrotation
JOINT neck
{
OFFSET 0 34.21 0
CHANNELS 6 Xposition Yposition Zposition Zrotation Xrotation Yrotation
JOINT head
{
OFFSET 0 6.29 0
CHANNELS 6 Xposition Yposition Zposition Zrotation Xrotation Yrotation
End Site
{
OFFSET 0 21.21 0
}
}
}
JOINT lCollar
{
OFFSET 4.06 26.61 -1.12
CHANNELS 6 Xposition Yposition Zposition Zrotation Xrotation Yrotation
JOINT lShldr
{
OFFSET 14.17 0 0
CHANNELS 6 Xposition Yposition Zposition Zrotation Xrotation Yrotation
JOINT lForeArm
{
OFFSET 26.12 0 0
CHANNELS 6 Xposition Yposition Zposition Zrotation Xrotation Yrotation
JOINT lHand
{
OFFSET 27.71 0 0
CHANNELS 6 Xposition Yposition Zposition Zrotation Xrotation Yrotation
JOINT lThumb1
{
OFFSET 2.29 -0.46 1.83
CHANNELS 6 Xposition Yposition Zposition Zrotation Xrotation Yrotation
JOINT lThumb2
{
OFFSET 5.29 0 0
CHANNELS 6 Xposition Yposition Zposition Zrotation Xrotation Yrotation
JOINT lThumb3
{
OFFSET 3.01 0 0
CHANNELS 6 Xposition Yposition Zposition Zrotation Xrotation Yrotation
End Site
{
OFFSET 2.62 0 0
}
}
}
}
JOINT lIndex1
{
OFFSET 9.37 0.29 2.59
CHANNELS 6 Xposition Yposition Zposition Zrotation Xrotation Yrotation
JOINT lIndex2
{
OFFSET 4.34 0 0
CHANNELS 6 Xposition Yposition Zposition Zrotation Xrotation Yrotation
JOINT lIndex3
{
OFFSET 2.16 0 0
CHANNELS 6 Xposition Yposition Zposition Zrotation Xrotation Yrotation
End Site
{
OFFSET 2.20 0 0
}
}
}
}
JOINT lMid1
{
OFFSET 9.47 0.83 0.29
CHANNELS 6 Xposition Yposition Zposition Zrotation Xrotation Yrotation
JOINT lMid2
{
OFFSET 4.77 0 0
CHANNELS 6 Xposition Yposition Zposition Zrotation Xrotation Yrotation
JOINT lMid3
{
OFFSET 2.87 0 0
CHANNELS 6 Xposition Yposition Zposition Zrotation Xrotation Yrotation
End Site
{
OFFSET 2.09 0 0
}
}
}
}
JOINT lRing1
{
OFFSET 8.65 1.01 -1.70
CHANNELS 6 Xposition Yposition Zposition Zrotation Xrotation Yrotation
JOINT lRing2
{
OFFSET 4.54 0 0
CHANNELS 6 Xposition Yposition Zposition Zrotation Xrotation Yrotation
JOINT lRing3
{
OFFSET 2.50 0 0
CHANNELS 6 Xposition Yposition Zposition Zrotation Xrotation Yrotation
End Site
{
OFFSET 2.20 0 0
}
}
}
}
JOINT lPinky1
{
OFFSET 7.69 0.66 -3.90
CHANNELS 6 Xposition Yposition Zposition Zrotation Xrotation Yrotation
JOINT lPinky2
{
OFFSET 3.21 0 0
CHANNELS 6 Xposition Yposition Zposition Zrotation Xrotation Yrotation
JOINT lPinky3
{
OFFSET 1.92 0 0
CHANNELS 6 Xposition Yposition Zposition Zrotation Xrotation Yrotation
End Site
{
OFFSET 1.78 0 0
}
}
}
}
}
}
}
}
JOINT rCollar
{
OFFSET -4.06 26.61 -1.12
CHANNELS 6 Xposition Yposition Zposition Zrotation Xrotation Yrotation
JOINT rShldr
{
OFFSET -14.17 0 0
CHANNELS 6 Xposition Yposition Zposition Zrotation Xrotation Yrotation
JOINT rForeArm
{
OFFSET -26.12 0 0
CHANNELS 6 Xposition Yposition Zposition Zrotation Xrotation Yrotation
JOINT rHand
{
OFFSET -27.71 0 0
CHANNELS 6 Xposition Yposition Zposition Zrotation Xrotation Yrotation
JOINT rThumb1
{
OFFSET -2.29 -0.46 1.83
CHANNELS 6 Xposition Yposition Zposition Zrotation Xrotation Yrotation
JOINT rThumb2
{
OFFSET -5.29 0 0
CHANNELS 6 Xposition Yposition Zposition Zrotation Xrotation Yrotation
JOINT rThumb3
{
OFFSET -3.01 0 0
CHANNELS 6 Xposition Yposition Zposition Zrotation Xrotation Yrotation
End Site
{
OFFSET -2.62 0 0
}
}
}
}
JOINT rIndex1
{
OFFSET -9.37 0.29 2.59
CHANNELS 6 Xposition Yposition Zposition Zrotation Xrotation Yrotation
JOINT rIndex2
{
OFFSET -4.34 0 0
CHANNELS 6 Xposition Yposition Zposition Zrotation Xrotation Yrotation
JOINT rIndex3
{
OFFSET -2.16 0 0
CHANNELS 6 Xposition Yposition Zposition Zrotation Xrotation Yrotation
End Site
{
OFFSET -2.20 0 0
}
}
}
}
JOINT rMid1
{
OFFSET -9.47 0.83 0.29
CHANNELS 6 Xposition Yposition Zposition Zrotation Xrotation Yrotation
JOINT rMid2
{
OFFSET -4.77 0 0
CHANNELS 6 Xposition Yposition Zposition Zrotation Xrotation Yrotation
JOINT rMid3
{
OFFSET -2.87 0 0
CHANNELS 6 Xposition Yposition Zposition Zrotation Xrotation Yrotation
End Site
{
OFFSET -2.09 0 0
}
}
}
}
JOINT rRing1
{
OFFSET -8.65 1.01 -1.70
CHANNELS 6 Xposition Yposition Zposition Zrotation Xrotation Yrotation
JOINT rRing2
{
OFFSET -4.54 0 0
CHANNELS 6 Xposition Yposition Zposition Zrotation Xrotation Yrotation
JOINT rRing3
{
OFFSET -2.50 0 0
CHANNELS 6 Xposition Yposition Zposition Zrotation Xrotation Yrotation
End Site
{
OFFSET -2.20 0 0
}
}
}
}
JOINT rPinky1
{
OFFSET -7.69 0.66 -3.90
CHANNELS 6 Xposition Yposition Zposition Zrotation Xrotation Yrotation
JOINT rPinky2
{
OFFSET -3.21 0 0
CHANNELS 6 Xposition Yposition Zposition Zrotation Xrotation Yrotation
JOINT rPinky3
{
OFFSET -1.92 0 0
CHANNELS 6 Xposition Yposition Zposition Zrotation Xrotation Yrotation
End Site
{
OFFSET -1.78 0 0
}
}
}
}
}
}
}
}
}
}
JOINT lThigh
{
OFFSET 8.73 -0 0
CHANNELS 6 Xposition Yposition Zposition Zrotation Xrotation Yrotation
JOINT lShin
{
OFFSET 0 -46.66 0
CHANNELS 6 Xposition Yposition Zposition Zrotation Xrotation Yrotation
JOINT lFoot
{
OFFSET 0 -40.14 0
CHANNELS 6 Xposition Yposition Zposition Zrotation Xrotation Yrotation
JOINT lToes
{
OFFSET 0 -8.88 14.22
CHANNELS 6 Xposition Yposition Zposition Zrotation Xrotation Yrotation
End Site
{
OFFSET 0 0 6.29
}
}
}
}
}
JOINT rThigh
{
OFFSET -8.73 0 -0
CHANNELS 6 Xposition Yposition Zposition Zrotation Xrotation Yrotation
JOINT rShin
{
OFFSET 0 -46.66 0
CHANNELS 6 Xposition Yposition Zposition Zrotation Xrotation Yrotation
JOINT rFoot
{
OFFSET 0 -40.14 0
CHANNELS 6 Xposition Yposition Zposition Zrotation Xrotation Yrotation
JOINT rToes
{
OFFSET 0 -8.88 14.22
CHANNELS 6 Xposition Yposition Zposition Zrotation Xrotation Yrotation
End Site
{
OFFSET 0 0 6.29
}
}
}
}
}
}
MOTION
Frames: 6
Frame Time: 0.03
-0.55 94.97 0.71 -3.22 -3.73 -0.45 0 7.23 0 0.85 0.76 0.49 0 16.54 0 1.22 3.38 0.96 0 34.21 0 -0.18 29.84 -0.03 0 6.29 0 -0.27 -26.79 -0.50 4.06 26.61 -1.12 1.68 -4.46 5.31 14.17 0 0 -83.02 30.10 -0.94 26.12 0 0 -0.09 0 -6.24 27.71 0 0 -10.83 3.79 -0.20 2.29 -0.46 1.83 44.98 77.45 -60.98 5.29 0 0 -10.37 1.65 4.22 3.01 0 0 5.83 -0.15 8.45 9.37 0.29 2.59 -18.64 -1.55 3.94 4.34 0 0 -19.94 -0.50 4.43 2.16 0 0 -18.33 -0.63 3.52 9.47 0.83 0.29 -20.40 -4.52 4.59 4.77 0 0 -30.23 -2.09 8.06 2.87 0 0 -22.95 -1.15 7.69 8.65 1.01 -1.70 -23.53 1.94 5.37 4.54 0 0 -44.53 -2.57 6.28 2.50 0 0 -34.90 -1.55 6.18 7.69 0.66 -3.90 -23.01 -9.26 10.16 3.21 0 0 -53.59 -5.18 14.49 1.92 0 0 -45.37 -6.31 16.79 -4.06 26.61 -1.12 -0.73 -4.47 -6.41 -14.17 0 0 82.35 11.80 -1.03 -26.12 0 0 0.12 0 8.31 -27.71 0 0 7.53 25.09 0.85 -2.29 -0.46 1.83 -37.05 77.91 51.10 -5.29 0 0 7.43 1.88 -4.57 -3.01 0 0 -9.60 -0 -8.95 -9.37 0.29 2.59 22.17 -1.82 -8.23 -4.34 0 0 13.95 -0.10 -3.15 -2.16 0 0 12.47 -0.29 -2.27 -9.47 0.83 0.29 24.51 -4.74 -10.14 -4.77 0 0 22.69 -1.15 -6.20 -2.87 0 0 15.46 -1.21 -5.82 -8.65 1.01 -1.70 29.42 1.58 -12.47 -4.54 0 0 34.66 -1.60 -5.13 -2.50 0 0 25.17 -1.60 -5.01 -7.69 0.66 -3.90 29.62 -9.63 -14.57 -3.21 0 0 41.12 -5.29 -14.05 -1.92 0 0 34.92 -3.78 -13.82 8.73 -0 0 9.07 -6.66 23.08 0 -46.66 0 5.08 29.08 8.63 0 -40.14 0 -8.43 -15.74 9.73 0 -8.88 14.22 0 0 0 -8.73 0 -0 -1.56 -10.22 -12.70 0 -46.66 0 -4.69 21.03 -9.26 0 -40.14 0 6.47 -4.94 -20.48 0 -8.88 14.22 0 0 0 
-0.54 94.97 0.66 -3.25 -3.71 -0.53 0 7.23 0 0.86 0.75 0.51 0 16.54 0 1.23 3.38 1.00 0 34.21 0 -0.15 29.79 -0.05 0 6.29 0 -0.30 -26.82 -0.54 4.06 26.61 -1.12 1.70 -4.46 5.31 14.17 0 0 -83.09 29.84 -0.68 26.12 0 0 -0.09 0 -6.01 27.71 0 0 -10.97 4.10 -0.06 2.29 -0.46 1.83 44.80 77.50 -60.75 5.29 0 0 -10.37 1.65 4.22 3.01 0 0 5.91 -0.14 8.45 9.37 0.29 2.59 -18.52 -1.55 3.95 4.34 0 0 -19.94 -0.50 4.43 2.16 0 0 -18.33 -0.63 3.52 9.47 0.83 0.29 -20.16 -4.51 4.66 4.77 0 0 -30.18 -2.08 8.05 2.87 0 0 -22.79 -1.13 7.65 8.65 1.01 -1.70 -23.16 1.96 5.52 4.54 0 0 -44.40 -2.56 6.27 2.50 0 0 -34.54 -1.51 6.13 7.69 0.66 -3.90 -22.49 -9.22 10.37 3.21 0 0 -53.42 -5.14 14.44 1.92 0 0 -44.88 -6.18 16.66 -4.06 26.61 -1.12 -0.71 -4.47 -6.43 -14.17 0 0 82.37 11.71 -1.15 -26.12 0 0 0.12 0 8.26 -27.71 0 0 7.49 25.09 0.80 -2.29 -0.46 1.83 -37.09 77.91 51.20 -5.29 0 0 7.43 1.88 -4.57 -3.01 0 0 -9.64 -0 -8.95 -9.37 0.29 2.59 22.30 -1.83 -8.17 -4.34 0 0 13.95 -0.10 -3.15 -2.16 0 0 12.43 -0.29 -2.26 -9.47 0.83 0.29 24.59 -4.75 -10.10 -4.77 0 0 22.69 -1.15 -6.20 -2.87 0 0 15.43 -1.22 -5.81 -8.65 1.01 -1.70 29.44 1.57 -12.45 -4.54 0 0 34.66 -1.60 -5.13 -2.50 0 0 25.15 -1.60 -5.01 -7.69 0.66 -3.90 29.6 -9.63 -14.56 -3.21 0 0 41.12 -5.29 -14.05 -1.92 0 0 34.92 -3.78 -13.82 8.73 -0 0 9.14 -6.71 23.16 0 -46.66 0 5.01 29.14 8.64 0 -40.14 0 -8.39 -15.76 9.74 0 -8.88 14.22 0 0 0 -8.73 0 -0 -1.55 -10.28 -12.70 0 -46.66 0 -4.65 21.01 -9.28 0 -40.14 0 6.42 -4.89 -20.41 0 -8.88 14.22 0 0 0 
-0.54 94.96 0.62 -3.28 -3.71 -0.62 0 7.23 0 0.87 0.77 0.53 0 16.54 0 1.24 3.41 1.04 0 34.21 0 -0.11 29.74 -0.07 0 6.29 0 -0.34 -26.83 -0.59 4.06 26.61 -1.12 1.71 -4.46 5.27 14.17 0 0 -83.14 29.57 -0.50 26.12 0 0 -0.08 0 -5.81 27.71 0 0 -11.09 4.20 -0 2.29 -0.46 1.83 44.66 77.53 -60.55 5.29 0 0 -10.37 1.65 4.22 3.01 0 0 6.00 -0.13 8.45 9.37 0.29 2.59 -18.42 -1.55 3.96 4.34 0 0 -19.94 -0.50 4.43 2.16 0 0 -18.34 -0.63 3.52 9.47 0.83 0.29 -19.87 -4.50 4.72 4.77 0 0 -30.08 -2.07 8.03 2.87 0 0 -22.52 -1.10 7.58 8.65 1.01 -1.70 -22.67 1.98 5.66 4.54 0 0 -44.18 -2.53 6.25 2.50 0 0 -33.89 -1.46 6.04 7.69 0.66 -3.90 -21.78 -9.17 10.56 3.21 0 0 -53.13 -5.06 14.36 1.92 0 0 -44.01 -5.95 16.42 -4.06 26.61 -1.12 -0.69 -4.47 -6.38 -14.17 0 0 82.37 11.68 -1.25 -26.12 0 0 0.12 0 8.29 -27.71 0 0 7.47 25.05 0.83 -2.29 -0.46 1.83 -37.12 77.91 51.26 -5.29 0 0 7.43 1.88 -4.57 -3.01 0 0 -9.65 0 -8.95 -9.37 0.29 2.59 22.51 -1.85 -8.10 -4.34 0 0 13.95 -0.10 -3.15 -2.16 0 0 12.42 -0.29 -2.26 -9.47 0.83 0.29 24.73 -4.76 -10.05 -4.77 0 0 22.69 -1.15 -6.20 -2.87 0 0 15.42 -1.22 -5.81 -8.65 1.01 -1.70 29.48 1.57 -12.42 -4.54 0 0 34.66 -1.60 -5.13 -2.50 0 0 25.15 -1.61 -5.01 -7.69 0.66 -3.90 29.56 -9.63 -14.55 -3.21 0 0 41.12 -5.29 -14.05 -1.92 0 0 34.91 -3.78 -13.82 8.73 -0 0 9.19 -6.73 23.20 0 -46.66 0 4.98 29.20 8.64 0 -40.14 0 -8.37 -15.79 9.77 0 -8.88 14.22 0 0 0 -8.73 0 -0 -1.54 -10.31 -12.69 0 -46.66 0 -4.62 21.01 -9.28 0 -40.14 0 6.39 -4.85 -20.34 0 -8.88 14.22 0 0 0 
-0.53 94.95 0.58 -3.29 -3.73 -0.68 0 7.23 0 0.87 0.79 0.55 0 16.54 0 1.25 3.46 1.07 0 34.21 0 -0.08 29.69 -0.09 0 6.29 0 -0.38 -26.80 -0.66 4.06 26.61 -1.12 1.77 -4.47 5.20 14.17 0 0 -83.23 29.27 -0.32 26.12 0 0 -0.08 0 -5.72 27.71 0 0 -11.08 4.15 -0.02 2.29 -0.46 1.83 44.69 77.51 -60.56 5.29 0 0 -10.37 1.65 4.22 3.01 0 0 6.05 -0.13 8.46 9.37 0.29 2.59 -18.33 -1.55 3.91 4.34 0 0 -19.94 -0.50 4.43 2.16 0 0 -18.37 -0.63 3.52 9.47 0.83 0.29 -19.57 -4.49 4.68 4.77 0 0 -29.98 -2.05 8.00 2.87 0 0 -22.19 -1.07 7.50 8.65 1.01 -1.70 -22.09 2.01 5.63 4.54 0 0 -43.94 -2.51 6.22 2.50 0 0 -33.12 -1.39 5.94 7.69 0.66 -3.90 -20.99 -9.14 10.54 3.21 0 0 -52.80 -4.98 14.26 1.92 0 0 -42.96 -5.67 16.14 -4.06 26.61 -1.12 -0.67 -4.48 -6.25 -14.17 0 0 82.38 11.62 -1.40 -26.12 0 0 0.12 0 8.39 -27.71 0 0 7.40 24.96 0.94 -2.29 -0.46 1.83 -37.13 77.91 51.28 -5.29 0 0 7.43 1.88 -4.57 -3.01 0 0 -9.64 0 -8.95 -9.37 0.29 2.59 22.74 -1.86 -8.07 -4.34 0 0 13.95 -0.10 -3.15 -2.16 0 0 12.43 -0.29 -2.27 -9.47 0.83 0.29 24.88 -4.77 -10.03 -4.77 0 0 22.69 -1.15 -6.20 -2.87 0 0 15.43 -1.22 -5.81 -8.65 1.01 -1.70 29.54 1.56 -12.41 -4.54 0 0 34.66 -1.60 -5.13 -2.50 0 0 25.15 -1.61 -5.01 -7.69 0.66 -3.90 29.56 -9.63 -14.55 -3.21 0 0 41.12 -5.29 -14.05 -1.92 0 0 34.91 -3.78 -13.82 8.73 -0 0 9.21 -6.76 23.21 0 -46.66 0 4.99 29.28 8.63 0 -40.14 0 -8.36 -15.81 9.81 0 -8.88 14.22 0 0 0 -8.73 0 -0 -1.53 -10.35 -12.68 0 -46.66 0 -4.62 21.06 -9.27 0 -40.14 0 6.38 -4.84 -20.30 0 -8.88 14.22 0 0 0 
-0.52 94.93 0.52 -3.30 -3.75 -0.72 0 7.23 0 0.89 0.83 0.55 0 16.54 0 1.28 3.52 1.07 0 34.21 0 -0.07 29.62 -0.11 0 6.29 0 -0.42 -26.69 -0.72 4.06 26.61 -1.12 1.88 -4.47 5.07 14.17 0 0 -83.43 28.85 0 26.12 0 0 -0.08 0 -5.76 27.71 0 0 -10.78 3.94 -0.10 2.29 -0.46 1.83 44.93 77.42 -60.81 5.29 0 0 -10.37 1.65 4.22 3.01 0 0 6.04 -0.13 8.46 9.37 0.29 2.59 -18.25 -1.55 3.82 4.34 0 0 -19.94 -0.50 4.43 2.16 0 0 -18.40 -0.64 3.53 9.47 0.83 0.29 -19.29 -4.48 4.54 4.77 0 0 -29.89 -2.04 7.98 2.87 0 0 -21.89 -1.03 7.42 8.65 1.01 -1.70 -21.54 2.03 5.42 4.54 0 0 -43.73 -2.48 6.19 2.50 0 0 -32.36 -1.33 5.84 7.69 0.66 -3.90 -20.27 -9.12 10.27 3.21 0 0 -52.52 -4.91 14.18 1.92 0 0 -41.93 -5.41 15.85 -4.06 26.61 -1.12 -0.71 -4.49 -6.00 -14.17 0 0 82.42 11.42 -1.66 -26.12 0 0 0.12 0 8.53 -27.71 0 0 7.19 24.69 1.09 -2.29 -0.46 1.83 -37.15 77.90 51.30 -5.29 0 0 7.43 1.88 -4.57 -3.01 0 0 -9.63 -0 -8.95 -9.37 0.29 2.59 22.91 -1.88 -8.06 -4.34 0 0 13.95 -0.10 -3.15 -2.16 0 0 12.45 -0.29 -2.27 -9.47 0.83 0.29 25.01 -4.79 -10.04 -4.77 0 0 22.69 -1.15 -6.20 -2.87 0 0 15.44 -1.23 -5.81 -8.65 1.01 -1.70 29.63 1.56 -12.43 -4.54 0 0 34.66 -1.60 -5.13 -2.50 0 0 25.15 -1.62 -5.01 -7.69 0.66 -3.90 29.60 -9.63 -14.59 -3.21 0 0 41.12 -5.29 -14.05 -1.92 0 0 34.90 -3.78 -13.82 8.73 -0 0 9.21 -6.83 23.19 0 -46.66 0 5.03 29.39 8.60 0 -40.14 0 -8.36 -15.85 9.87 0 -8.88 14.22 0 0 -0 -8.73 0 -0 -1.53 -10.41 -12.66 0 -46.66 0 -4.64 21.14 -9.24 0 -40.14 0 6.39 -4.85 -20.28 0 -8.88 14.22 0 0 0 
-0.52 94.90 0.44 -3.32 -3.74 -0.79 0 7.23 0 0.91 0.87 0.56 0 16.54 0 1.32 3.61 1.08 0 34.21 0 -0.10 29.52 -0.10 0 6.29 0 -0.45 -26.54 -0.73 4.06 26.61 -1.12 2.03 -4.48 4.79 14.17 0 0 -83.69 28.25 0.55 26.12 0 0 -0.08 0 -5.94 27.71 0 0 -10.13 3.34 -0.29 2.29 -0.46 1.83 45.35 77.28 -61.26 5.29 0 0 -10.37 1.65 4.22 3.01 0 0 5.99 -0.14 8.46 9.37 0.29 2.59 -18.14 -1.55 3.72 4.34 0 0 -19.94 -0.50 4.43 2.16 0 0 -18.44 -0.64 3.54 9.47 0.83 0.29 -19.05 -4.47 4.33 4.77 0 0 -29.83 -2.03 7.97 2.87 0 0 -21.64 -1.01 7.36 8.65 1.01 -1.70 -21.08 2.05 5.07 4.54 0 0 -43.59 -2.47 6.18 2.50 0 0 -31.75 -1.27 5.76 7.69 0.66 -3.90 -19.76 -9.11 9.81 3.21 0 0 -52.34 -4.86 14.13 1.92 0 0 -41.09 -5.20 15.61 -4.06 26.61 -1.12 -0.79 -4.52 -5.57 -14.17 0 0 82.46 11.12 -2.12 -26.12 0 0 0.13 0.01 8.80 -27.71 0 0 6.92 24.07 1.33 -2.29 -0.46 1.83 -37.18 77.89 51.31 -5.29 0 0 7.43 1.88 -4.57 -3.01 0 0 -9.60 -0 -8.95 -9.37 0.29 2.59 22.89 -1.88 -8.09 -4.34 0 0 13.95 -0.10 -3.15 -2.16 0 0 12.47 -0.29 -2.27 -9.47 0.83 0.29 25.03 -4.79 -10.07 -4.77 0 0 22.69 -1.15 -6.20 -2.87 0 0 15.45 -1.24 -5.82 -8.65 1.01 -1.70 29.69 1.55 -12.47 -4.54 0 0 34.66 -1.60 -5.13 -2.50 0 0 25.14 -1.63 -5.01 -7.69 0.66 -3.90 29.69 -9.63 -14.63 -3.21 0 0 41.12 -5.29 -14.05 -1.92 0 0 34.88 -3.78 -13.81 8.73 -0 0 9.25 -6.94 23.20 0 -46.66 0 5.06 29.54 8.56 0 -40.14 0 -8.36 -15.90 9.96 0 -8.88 14.22 0 0 0 -8.73 0 -0 -1.55 -10.53 -12.67 0 -46.66 0 -4.60 21.26 -9.20 0 -40.14 0 6.34 -4.86 -20.21 0 -8.88 14.22 0 0 0 
